<svg width="179" height="92" viewBox="0 0 179 92" fill="none" xmlns="http://www.w3.org/2000/svg">
<rect width="179" height="92" rx="14" fill="white"/>
<path d="M91.4148 38.3118C89.4831 38.3118 87.653 39.2292 86.3991 40.6904V38.5836H83.1795V55.5741H86.3991V45.9235C86.3991 43.273 88.263 41.3021 90.737 41.3021C91.5503 41.3021 92.4654 41.7098 93.2787 42.3215L94.2615 39.0254C93.4143 38.5496 92.4315 38.3118 91.4148 38.3118Z" fill="black"/>
<path d="M104.487 38.0491C102.284 38.0491 100.285 38.8642 98.7598 40.1888V30H95.5406V55.3021H98.7598V53.4342C100.285 54.7587 102.284 55.5738 104.487 55.5738C109.332 55.5738 113.229 51.6342 113.229 46.8115C113.229 41.9888 109.332 38.0491 104.487 38.0491ZM104.385 52.5172C101.267 52.5172 98.8615 50.0719 98.8615 46.8115C98.8615 43.5511 101.267 41.1058 104.385 41.1058C107.536 41.1058 109.908 43.5511 109.908 46.8115C109.908 50.0719 107.536 52.5172 104.385 52.5172Z" fill="black"/>
<path d="M116.854 33.8202C117.884 33.8202 118.772 32.9712 118.772 31.9101C118.772 30.8489 117.884 30 116.854 30C115.788 30 114.936 30.8489 114.936 31.9101C114.936 32.9712 115.788 33.8202 116.854 33.8202ZM115.149 55.5738H118.523V37.8879H115.149V55.5738Z" fill="black"/>
<path d="M128.799 38.3118C126.847 38.3118 124.997 39.2292 123.73 40.6904V38.5836H120.476V55.5741H123.73V45.9235C123.73 43.273 125.614 41.3021 128.114 41.3021C130.614 41.3021 132.498 43.273 132.498 45.8895V55.5741H135.82V45.7876C135.82 41.6079 132.875 38.3118 128.799 38.3118Z" fill="black"/>
<path d="M77.9464 38.7891V40.6063C76.4766 39.3177 74.5496 38.5248 72.4266 38.5248C67.7561 38.5248 64 42.3575 64 47.0494C64 51.7412 67.7561 55.574 72.4266 55.574C74.5496 55.574 76.4766 54.781 77.9464 53.4924V55.3096H81.0492V38.7891H77.9464ZM72.4919 52.6003C69.4871 52.6003 67.1682 50.2213 67.1682 47.0494C67.1682 43.8774 69.4871 41.4985 72.4919 41.4985C75.5295 41.4985 77.8157 43.8774 77.8157 47.0494C77.8157 50.2213 75.5295 52.6003 72.4919 52.6003Z" fill="black"/>
<path d="M151.472 38.7891V40.6063C150.002 39.3177 148.075 38.5248 145.952 38.5248C141.281 38.5248 137.525 42.3575 137.525 47.0494C137.525 51.7412 141.281 55.574 145.952 55.574C148.075 55.574 150.002 54.781 151.472 53.4924V55.3096H154.575V38.7891H151.472ZM146.017 52.6003C143.013 52.6003 140.694 50.2213 140.694 47.0494C140.694 43.8774 143.013 41.4985 146.017 41.4985C149.055 41.4985 151.341 43.8774 151.341 47.0494C151.341 50.2213 149.055 52.6003 146.017 52.6003Z" fill="black"/>
<path d="M112.052 70.098C111.734 70.098 111.464 69.9907 111.24 69.776C111.016 69.552 110.904 69.272 110.904 68.936C110.904 68.5907 111.011 68.3107 111.226 68.096C111.45 67.8813 111.725 67.774 112.052 67.774C112.378 67.774 112.649 67.8813 112.864 68.096C113.088 68.3107 113.2 68.5907 113.2 68.936C113.2 69.272 113.088 69.552 112.864 69.776C112.64 69.9907 112.369 70.098 112.052 70.098ZM118.494 62.44C119.222 62.44 119.87 62.5987 120.44 62.916C121.018 63.2333 121.471 63.6813 121.798 64.26C122.124 64.8387 122.288 65.506 122.288 66.262C122.288 67.018 122.124 67.69 121.798 68.278C121.471 68.8567 121.018 69.3047 120.44 69.622C119.87 69.9393 119.222 70.098 118.494 70.098C117.98 70.098 117.509 70.0093 117.08 69.832C116.66 69.6547 116.305 69.3887 116.016 69.034V70H114.35V59.612H116.1V63.434C116.398 63.1073 116.748 62.86 117.15 62.692C117.56 62.524 118.008 62.44 118.494 62.44ZM118.298 68.6C118.942 68.6 119.469 68.3853 119.88 67.956C120.3 67.5267 120.51 66.962 120.51 66.262C120.51 65.562 120.3 64.9973 119.88 64.568C119.469 64.1387 118.942 63.924 118.298 63.924C117.878 63.924 117.5 64.022 117.164 64.218C116.828 64.4047 116.562 64.6753 116.366 65.03C116.17 65.3847 116.072 65.7953 116.072 66.262C116.072 66.7287 116.17 67.1393 116.366 67.494C116.562 67.8487 116.828 68.124 117.164 68.32C117.5 68.5067 117.878 68.6 118.298 68.6ZM123.387 62.524H125.137V70H123.387V62.524ZM124.269 61.292C123.952 61.292 123.686 61.194 123.471 60.998C123.257 60.7927 123.149 60.5407 123.149 60.242C123.149 59.9433 123.257 59.696 123.471 59.5C123.686 59.2947 123.952 59.192 124.269 59.192C124.587 59.192 124.853 59.29 125.067 59.486C125.282 59.6727 125.389 59.9107 125.389 60.2C125.389 60.508 125.282 60.7693 125.067 60.984C124.862 61.1893 124.596 61.292 124.269 61.292ZM126.874 59.612H128.624V70H126.874V59.612ZM130.361 59.612H132.111V70H130.361V59.612ZM133.848 62.524H135.598V70H133.848V62.524ZM134.73 61.292C134.413 61.292 134.147 61.194 133.932 60.998C133.717 60.7927 133.61 60.5407 133.61 60.242C133.61 59.9433 133.717 59.696 133.932 59.5C134.147 59.2947 134.413 59.192 134.73 59.192C135.047 59.192 135.313 59.29 135.528 59.486C135.743 59.6727 135.85 59.9107 135.85 60.2C135.85 60.508 135.743 60.7693 135.528 60.984C135.323 61.1893 135.057 61.292 134.73 61.292ZM141.577 62.44C142.52 62.44 143.276 62.7153 143.845 63.266C144.414 63.8167 144.699 64.6333 144.699 65.716V70H142.949V65.94C142.949 65.2867 142.795 64.7967 142.487 64.47C142.179 64.134 141.74 63.966 141.171 63.966C140.527 63.966 140.018 64.162 139.645 64.554C139.272 64.9367 139.085 65.492 139.085 66.22V70H137.335V62.524H139.001V63.49C139.29 63.1447 139.654 62.8833 140.093 62.706C140.532 62.5287 141.026 62.44 141.577 62.44ZM153.847 62.524V68.866C153.847 71.498 152.503 72.814 149.815 72.814C149.097 72.814 148.415 72.7207 147.771 72.534C147.127 72.3567 146.595 72.0953 146.175 71.75L146.959 70.434C147.286 70.7047 147.697 70.9193 148.191 71.078C148.695 71.246 149.204 71.33 149.717 71.33C150.539 71.33 151.141 71.1433 151.523 70.77C151.906 70.3967 152.097 69.8273 152.097 69.062V68.67C151.799 68.9967 151.435 69.244 151.005 69.412C150.576 69.58 150.105 69.664 149.591 69.664C148.882 69.664 148.238 69.5147 147.659 69.216C147.09 68.908 146.637 68.4787 146.301 67.928C145.975 67.3773 145.811 66.7473 145.811 66.038C145.811 65.3287 145.975 64.7033 146.301 64.162C146.637 63.6113 147.09 63.1867 147.659 62.888C148.238 62.5893 148.882 62.44 149.591 62.44C150.133 62.44 150.623 62.5287 151.061 62.706C151.509 62.8833 151.883 63.154 152.181 63.518V62.524H153.847ZM149.857 68.18C150.52 68.18 151.061 67.984 151.481 67.592C151.911 67.1907 152.125 66.6727 152.125 66.038C152.125 65.4127 151.911 64.904 151.481 64.512C151.061 64.12 150.52 63.924 149.857 63.924C149.185 63.924 148.635 64.12 148.205 64.512C147.785 64.904 147.575 65.4127 147.575 66.038C147.575 66.6727 147.785 67.1907 148.205 67.592C148.635 67.984 149.185 68.18 149.857 68.18Z" fill="black"/>
</svg>
