<svg width="179" height="92" viewBox="0 0 179 92" fill="none" xmlns="http://www.w3.org/2000/svg">
<rect width="179" height="92" rx="14" fill="white"/>
<path d="M91.4148 38.3118C89.4831 38.3118 87.653 39.2292 86.3991 40.6904V38.5836H83.1796V55.5741H86.3991V45.9235C86.3991 43.273 88.263 41.3021 90.737 41.3021C91.5504 41.3021 92.4654 41.7098 93.2788 42.3215L94.2616 39.0254C93.4143 38.5496 92.4315 38.3118 91.4148 38.3118Z" fill="black"/>
<path d="M104.487 38.0491C102.284 38.0491 100.285 38.8642 98.7598 40.1888V30H95.5406V55.3021H98.7598V53.4342C100.285 54.7587 102.284 55.5738 104.487 55.5738C109.332 55.5738 113.229 51.6342 113.229 46.8115C113.229 41.9888 109.332 38.0491 104.487 38.0491ZM104.385 52.5172C101.267 52.5172 98.8615 50.0719 98.8615 46.8115C98.8615 43.5511 101.267 41.1058 104.385 41.1058C107.536 41.1058 109.908 43.5511 109.908 46.8115C109.908 50.0719 107.536 52.5172 104.385 52.5172Z" fill="black"/>
<path d="M116.854 33.8202C117.884 33.8202 118.772 32.9712 118.772 31.9101C118.772 30.8489 117.884 30 116.854 30C115.788 30 114.936 30.8489 114.936 31.9101C114.936 32.9712 115.788 33.8202 116.854 33.8202ZM115.149 55.5738H118.523V37.8879H115.149V55.5738Z" fill="black"/>
<path d="M128.799 38.3118C126.847 38.3118 124.997 39.2292 123.73 40.6904V38.5836H120.476V55.5741H123.73V45.9235C123.73 43.273 125.613 41.3021 128.114 41.3021C130.614 41.3021 132.498 43.273 132.498 45.8895V55.5741H135.82V45.7876C135.82 41.6079 132.875 38.3118 128.799 38.3118Z" fill="black"/>
<path d="M77.9464 38.7891V40.6063C76.4766 39.3177 74.5496 38.5247 72.4266 38.5247C67.7561 38.5247 64 42.3575 64 47.0494C64 51.7412 67.7561 55.574 72.4266 55.574C74.5496 55.574 76.4766 54.781 77.9464 53.4924V55.3096H81.0492V38.7891H77.9464ZM72.4919 52.6003C69.4871 52.6003 67.1682 50.2213 67.1682 47.0494C67.1682 43.8774 69.4871 41.4985 72.4919 41.4985C75.5295 41.4985 77.8157 43.8774 77.8157 47.0494C77.8157 50.2213 75.5295 52.6003 72.4919 52.6003Z" fill="black"/>
<path d="M151.472 38.7891V40.6063C150.002 39.3177 148.075 38.5247 145.952 38.5247C141.282 38.5247 137.525 42.3575 137.525 47.0494C137.525 51.7412 141.282 55.574 145.952 55.574C148.075 55.574 150.002 54.781 151.472 53.4924V55.3096H154.575V38.7891H151.472ZM146.017 52.6003C143.013 52.6003 140.694 50.2213 140.694 47.0494C140.694 43.8774 143.013 41.4985 146.017 41.4985C149.055 41.4985 151.341 43.8774 151.341 47.0494C151.341 50.2213 149.055 52.6003 146.017 52.6003Z" fill="black"/>
<path d="M115.949 70.098C115.632 70.098 115.361 69.9907 115.137 69.776C114.913 69.552 114.801 69.272 114.801 68.936C114.801 68.5907 114.909 68.3107 115.123 68.096C115.347 67.8813 115.623 67.774 115.949 67.774C116.276 67.774 116.547 67.8813 116.761 68.096C116.985 68.3107 117.097 68.5907 117.097 68.936C117.097 69.272 116.985 69.552 116.761 69.776C116.537 69.9907 116.267 70.098 115.949 70.098ZM121.541 70.098C120.766 70.098 120.071 69.9347 119.455 69.608C118.839 69.2813 118.358 68.8287 118.013 68.25C117.667 67.662 117.495 66.9993 117.495 66.262C117.495 65.5247 117.667 64.8667 118.013 64.288C118.358 63.7093 118.834 63.2567 119.441 62.93C120.057 62.6033 120.757 62.44 121.541 62.44C122.278 62.44 122.922 62.5893 123.473 62.888C124.033 63.1867 124.453 63.616 124.733 64.176L123.389 64.96C123.174 64.6147 122.903 64.358 122.577 64.19C122.259 64.0127 121.909 63.924 121.527 63.924C120.873 63.924 120.332 64.1387 119.903 64.568C119.473 64.988 119.259 65.5527 119.259 66.262C119.259 66.9713 119.469 67.5407 119.889 67.97C120.318 68.39 120.864 68.6 121.527 68.6C121.909 68.6 122.259 68.516 122.577 68.348C122.903 68.1707 123.174 67.9093 123.389 67.564L124.733 68.348C124.443 68.908 124.019 69.342 123.459 69.65C122.908 69.9487 122.269 70.098 121.541 70.098ZM125.617 59.612H127.367V70H125.617V59.612ZM132.464 70.098C131.708 70.098 131.027 69.9347 130.42 69.608C129.813 69.2813 129.337 68.8287 128.992 68.25C128.656 67.662 128.488 66.9993 128.488 66.262C128.488 65.5247 128.656 64.8667 128.992 64.288C129.337 63.7093 129.813 63.2567 130.42 62.93C131.027 62.6033 131.708 62.44 132.464 62.44C133.229 62.44 133.915 62.6033 134.522 62.93C135.129 63.2567 135.6 63.7093 135.936 64.288C136.281 64.8667 136.454 65.5247 136.454 66.262C136.454 66.9993 136.281 67.662 135.936 68.25C135.6 68.8287 135.129 69.2813 134.522 69.608C133.915 69.9347 133.229 70.098 132.464 70.098ZM132.464 68.6C133.108 68.6 133.64 68.3853 134.06 67.956C134.48 67.5267 134.69 66.962 134.69 66.262C134.69 65.562 134.48 64.9973 134.06 64.568C133.64 64.1387 133.108 63.924 132.464 63.924C131.82 63.924 131.288 64.1387 130.868 64.568C130.457 64.9973 130.252 65.562 130.252 66.262C130.252 66.962 130.457 67.5267 130.868 67.956C131.288 68.3853 131.82 68.6 132.464 68.6ZM144.805 62.524V70H143.139V69.048C142.859 69.384 142.509 69.6453 142.089 69.832C141.669 70.0093 141.217 70.098 140.731 70.098C139.733 70.098 138.944 69.8227 138.365 69.272C137.796 68.712 137.511 67.886 137.511 66.794V62.524H139.261V66.556C139.261 67.228 139.411 67.732 139.709 68.068C140.017 68.3947 140.451 68.558 141.011 68.558C141.637 68.558 142.131 68.3667 142.495 67.984C142.869 67.592 143.055 67.032 143.055 66.304V62.524H144.805ZM153.859 59.612V70H152.179V69.034C151.889 69.3887 151.53 69.6547 151.101 69.832C150.681 70.0093 150.214 70.098 149.701 70.098C148.982 70.098 148.333 69.9393 147.755 69.622C147.185 69.3047 146.737 68.8567 146.411 68.278C146.084 67.69 145.921 67.018 145.921 66.262C145.921 65.506 146.084 64.8387 146.411 64.26C146.737 63.6813 147.185 63.2333 147.755 62.916C148.333 62.5987 148.982 62.44 149.701 62.44C150.195 62.44 150.648 62.524 151.059 62.692C151.469 62.86 151.819 63.112 152.109 63.448V59.612H153.859ZM149.911 68.6C150.331 68.6 150.709 68.5067 151.045 68.32C151.381 68.124 151.647 67.8487 151.843 67.494C152.039 67.1393 152.137 66.7287 152.137 66.262C152.137 65.7953 152.039 65.3847 151.843 65.03C151.647 64.6753 151.381 64.4047 151.045 64.218C150.709 64.022 150.331 63.924 149.911 63.924C149.491 63.924 149.113 64.022 148.777 64.218C148.441 64.4047 148.175 64.6753 147.979 65.03C147.783 65.3847 147.685 65.7953 147.685 66.262C147.685 66.7287 147.783 67.1393 147.979 67.494C148.175 67.8487 148.441 68.124 148.777 68.32C149.113 68.5067 149.491 68.6 149.911 68.6Z" fill="black"/>
</svg>
