<svg width="179" height="92" viewBox="0 0 179 92" fill="none" xmlns="http://www.w3.org/2000/svg">
<rect width="179" height="92" rx="14" fill="white"/>
<path d="M91.4148 38.3118C89.4831 38.3118 87.653 39.2292 86.3991 40.6904V38.5836H83.1796V55.5741H86.3991V45.9235C86.3991 43.273 88.263 41.3021 90.737 41.3021C91.5504 41.3021 92.4654 41.7098 93.2788 42.3215L94.2616 39.0254C93.4143 38.5496 92.4315 38.3118 91.4148 38.3118Z" fill="black"/>
<path d="M104.487 38.0491C102.284 38.0491 100.285 38.8642 98.7598 40.1888V30H95.5406V55.3021H98.7598V53.4342C100.285 54.7587 102.284 55.5738 104.487 55.5738C109.332 55.5738 113.229 51.6342 113.229 46.8115C113.229 41.9888 109.332 38.0491 104.487 38.0491ZM104.385 52.5172C101.267 52.5172 98.8615 50.0719 98.8615 46.8115C98.8615 43.5511 101.267 41.1058 104.385 41.1058C107.536 41.1058 109.908 43.5511 109.908 46.8115C109.908 50.0719 107.536 52.5172 104.385 52.5172Z" fill="black"/>
<path d="M116.854 33.8202C117.884 33.8202 118.772 32.9712 118.772 31.9101C118.772 30.8489 117.884 30 116.854 30C115.788 30 114.936 30.8489 114.936 31.9101C114.936 32.9712 115.788 33.8202 116.854 33.8202ZM115.149 55.5738H118.523V37.8879H115.149V55.5738Z" fill="black"/>
<path d="M128.799 38.3118C126.847 38.3118 124.997 39.2292 123.73 40.6904V38.5836H120.476V55.5741H123.73V45.9235C123.73 43.273 125.613 41.3021 128.114 41.3021C130.614 41.3021 132.498 43.273 132.498 45.8895V55.5741H135.82V45.7876C135.82 41.6079 132.875 38.3118 128.799 38.3118Z" fill="black"/>
<path d="M77.9464 38.7891V40.6063C76.4766 39.3177 74.5496 38.5248 72.4266 38.5248C67.7561 38.5248 64 42.3575 64 47.0494C64 51.7412 67.7561 55.574 72.4266 55.574C74.5496 55.574 76.4766 54.781 77.9464 53.4924V55.3096H81.0492V38.7891H77.9464ZM72.4919 52.6003C69.4871 52.6003 67.1682 50.2213 67.1682 47.0494C67.1682 43.8774 69.4871 41.4985 72.4919 41.4985C75.5295 41.4985 77.8157 43.8774 77.8157 47.0494C77.8157 50.2213 75.5295 52.6003 72.4919 52.6003Z" fill="black"/>
<path d="M151.472 38.7891V40.6063C150.002 39.3177 148.075 38.5248 145.952 38.5248C141.282 38.5248 137.525 42.3575 137.525 47.0494C137.525 51.7412 141.282 55.574 145.952 55.574C148.075 55.574 150.002 54.781 151.472 53.4924V55.3096H154.575V38.7891H151.472ZM146.017 52.6003C143.013 52.6003 140.694 50.2213 140.694 47.0494C140.694 43.8774 143.013 41.4985 146.017 41.4985C149.055 41.4985 151.341 43.8774 151.341 47.0494C151.341 50.2213 149.055 52.6003 146.017 52.6003Z" fill="black"/>
<path d="M103.083 70.098C102.766 70.098 102.495 69.9907 102.271 69.776C102.047 69.552 101.935 69.272 101.935 68.936C101.935 68.5907 102.042 68.3107 102.257 68.096C102.481 67.8813 102.756 67.774 103.083 67.774C103.41 67.774 103.68 67.8813 103.895 68.096C104.119 68.3107 104.231 68.5907 104.231 68.936C104.231 69.272 104.119 69.552 103.895 69.776C103.671 69.9907 103.4 70.098 103.083 70.098ZM112.566 59.612V70H110.886V69.034C110.597 69.3887 110.238 69.6547 109.808 69.832C109.388 70.0093 108.922 70.098 108.408 70.098C107.69 70.098 107.041 69.9393 106.462 69.622C105.893 69.3047 105.445 68.8567 105.118 68.278C104.792 67.69 104.628 67.018 104.628 66.262C104.628 65.506 104.792 64.8387 105.118 64.26C105.445 63.6813 105.893 63.2333 106.462 62.916C107.041 62.5987 107.69 62.44 108.408 62.44C108.903 62.44 109.356 62.524 109.766 62.692C110.177 62.86 110.527 63.112 110.816 63.448V59.612H112.566ZM108.618 68.6C109.038 68.6 109.416 68.5067 109.752 68.32C110.088 68.124 110.354 67.8487 110.55 67.494C110.746 67.1393 110.844 66.7287 110.844 66.262C110.844 65.7953 110.746 65.3847 110.55 65.03C110.354 64.6753 110.088 64.4047 109.752 64.218C109.416 64.022 109.038 63.924 108.618 63.924C108.198 63.924 107.82 64.022 107.484 64.218C107.148 64.4047 106.882 64.6753 106.686 65.03C106.49 65.3847 106.392 65.7953 106.392 66.262C106.392 66.7287 106.49 67.1393 106.686 67.494C106.882 67.8487 107.148 68.124 107.484 68.32C107.82 68.5067 108.198 68.6 108.618 68.6ZM121.324 66.304C121.324 66.4253 121.314 66.598 121.296 66.822H115.43C115.532 67.3727 115.798 67.8113 116.228 68.138C116.666 68.4553 117.208 68.614 117.852 68.614C118.673 68.614 119.35 68.3433 119.882 67.802L120.82 68.88C120.484 69.2813 120.059 69.5847 119.546 69.79C119.032 69.9953 118.454 70.098 117.81 70.098C116.988 70.098 116.265 69.9347 115.64 69.608C115.014 69.2813 114.529 68.8287 114.184 68.25C113.848 67.662 113.68 66.9993 113.68 66.262C113.68 65.534 113.843 64.8807 114.17 64.302C114.506 63.714 114.968 63.2567 115.556 62.93C116.144 62.6033 116.806 62.44 117.544 62.44C118.272 62.44 118.92 62.6033 119.49 62.93C120.068 63.2473 120.516 63.7 120.834 64.288C121.16 64.8667 121.324 65.5387 121.324 66.304ZM117.544 63.84C116.984 63.84 116.508 64.008 116.116 64.344C115.733 64.6707 115.5 65.1093 115.416 65.66H119.658C119.583 65.1187 119.354 64.68 118.972 64.344C118.589 64.008 118.113 63.84 117.544 63.84ZM129.308 62.524L126.102 70H124.296L121.09 62.524H122.91L125.234 68.068L127.628 62.524H129.308ZM129.842 62.524H131.592V70H129.842V62.524ZM130.724 61.292C130.406 61.292 130.14 61.194 129.926 60.998C129.711 60.7927 129.604 60.5407 129.604 60.242C129.604 59.9433 129.711 59.696 129.926 59.5C130.14 59.2947 130.406 59.192 130.724 59.192C131.041 59.192 131.307 59.29 131.522 59.486C131.736 59.6727 131.844 59.9107 131.844 60.2C131.844 60.508 131.736 60.7693 131.522 60.984C131.316 61.1893 131.05 61.292 130.724 61.292ZM136.759 70.098C135.984 70.098 135.289 69.9347 134.673 69.608C134.057 69.2813 133.576 68.8287 133.231 68.25C132.885 67.662 132.713 66.9993 132.713 66.262C132.713 65.5247 132.885 64.8667 133.231 64.288C133.576 63.7093 134.052 63.2567 134.659 62.93C135.275 62.6033 135.975 62.44 136.759 62.44C137.496 62.44 138.14 62.5893 138.691 62.888C139.251 63.1867 139.671 63.616 139.951 64.176L138.607 64.96C138.392 64.6147 138.121 64.358 137.795 64.19C137.477 64.0127 137.127 63.924 136.745 63.924C136.091 63.924 135.55 64.1387 135.121 64.568C134.691 64.988 134.477 65.5527 134.477 66.262C134.477 66.9713 134.687 67.5407 135.107 67.97C135.536 68.39 136.082 68.6 136.745 68.6C137.127 68.6 137.477 68.516 137.795 68.348C138.121 68.1707 138.392 67.9093 138.607 67.564L139.951 68.348C139.661 68.908 139.237 69.342 138.677 69.65C138.126 69.9487 137.487 70.098 136.759 70.098ZM147.822 66.304C147.822 66.4253 147.813 66.598 147.794 66.822H141.928C142.031 67.3727 142.297 67.8113 142.726 68.138C143.165 68.4553 143.706 68.614 144.35 68.614C145.171 68.614 145.848 68.3433 146.38 67.802L147.318 68.88C146.982 69.2813 146.557 69.5847 146.044 69.79C145.531 69.9953 144.952 70.098 144.308 70.098C143.487 70.098 142.763 69.9347 142.138 69.608C141.513 69.2813 141.027 68.8287 140.682 68.25C140.346 67.662 140.178 66.9993 140.178 66.262C140.178 65.534 140.341 64.8807 140.668 64.302C141.004 63.714 141.466 63.2567 142.054 62.93C142.642 62.6033 143.305 62.44 144.042 62.44C144.77 62.44 145.419 62.6033 145.988 62.93C146.567 63.2473 147.015 63.7 147.332 64.288C147.659 64.8667 147.822 65.5387 147.822 66.304ZM144.042 63.84C143.482 63.84 143.006 64.008 142.614 64.344C142.231 64.6707 141.998 65.1093 141.914 65.66H146.156C146.081 65.1187 145.853 64.68 145.47 64.344C145.087 64.008 144.611 63.84 144.042 63.84ZM151.253 70.098C150.646 70.098 150.054 70.0187 149.475 69.86C148.896 69.7013 148.434 69.5007 148.089 69.258L148.761 67.928C149.097 68.152 149.498 68.334 149.965 68.474C150.441 68.6047 150.908 68.67 151.365 68.67C152.41 68.67 152.933 68.3947 152.933 67.844C152.933 67.5827 152.798 67.4007 152.527 67.298C152.266 67.1953 151.841 67.0973 151.253 67.004C150.637 66.9107 150.133 66.8033 149.741 66.682C149.358 66.5607 149.022 66.3507 148.733 66.052C148.453 65.744 148.313 65.3193 148.313 64.778C148.313 64.0687 148.607 63.504 149.195 63.084C149.792 62.6547 150.595 62.44 151.603 62.44C152.116 62.44 152.63 62.5007 153.143 62.622C153.656 62.734 154.076 62.888 154.403 63.084L153.731 64.414C153.096 64.0407 152.382 63.854 151.589 63.854C151.076 63.854 150.684 63.9333 150.413 64.092C150.152 64.2413 150.021 64.442 150.021 64.694C150.021 64.974 150.161 65.1747 150.441 65.296C150.73 65.408 151.174 65.5153 151.771 65.618C152.368 65.7113 152.858 65.8187 153.241 65.94C153.624 66.0613 153.95 66.2667 154.221 66.556C154.501 66.8453 154.641 67.256 154.641 67.788C154.641 68.488 154.338 69.048 153.731 69.468C153.124 69.888 152.298 70.098 151.253 70.098Z" fill="black"/>
</svg>
