<svg width="179" height="92" viewBox="0 0 179 92" fill="none" xmlns="http://www.w3.org/2000/svg">
<rect width="179" height="92" rx="14" fill="white"/>
<path d="M91.4148 38.3118C89.4831 38.3118 87.653 39.2292 86.3991 40.6904V38.5836H83.1796V55.5741H86.3991V45.9235C86.3991 43.273 88.263 41.3021 90.737 41.3021C91.5504 41.3021 92.4654 41.7098 93.2788 42.3215L94.2616 39.0254C93.4143 38.5496 92.4315 38.3118 91.4148 38.3118Z" fill="black"/>
<path d="M104.487 38.0491C102.284 38.0491 100.285 38.8642 98.7598 40.1888V30H95.5406V55.3021H98.7598V53.4342C100.285 54.7587 102.284 55.5738 104.487 55.5738C109.332 55.5738 113.229 51.6342 113.229 46.8115C113.229 41.9888 109.332 38.0491 104.487 38.0491ZM104.385 52.5172C101.267 52.5172 98.8615 50.0719 98.8615 46.8115C98.8615 43.5511 101.267 41.1058 104.385 41.1058C107.536 41.1058 109.908 43.5511 109.908 46.8115C109.908 50.0719 107.536 52.5172 104.385 52.5172Z" fill="black"/>
<path d="M116.854 33.8202C117.884 33.8202 118.772 32.9712 118.772 31.9101C118.772 30.8489 117.884 30 116.854 30C115.788 30 114.936 30.8489 114.936 31.9101C114.936 32.9712 115.788 33.8202 116.854 33.8202ZM115.149 55.5738H118.523V37.8879H115.149V55.5738Z" fill="black"/>
<path d="M128.799 38.3118C126.847 38.3118 124.997 39.2292 123.73 40.6904V38.5836H120.476V55.5741H123.73V45.9235C123.73 43.273 125.613 41.3021 128.114 41.3021C130.614 41.3021 132.498 43.273 132.498 45.8895V55.5741H135.82V45.7876C135.82 41.6079 132.875 38.3118 128.799 38.3118Z" fill="black"/>
<path d="M77.9464 38.7891V40.6063C76.4766 39.3177 74.5496 38.5248 72.4266 38.5248C67.7561 38.5248 64 42.3575 64 47.0494C64 51.7412 67.7561 55.574 72.4266 55.574C74.5496 55.574 76.4766 54.781 77.9464 53.4924V55.3096H81.0492V38.7891H77.9464ZM72.4919 52.6003C69.4871 52.6003 67.1682 50.2213 67.1682 47.0494C67.1682 43.8774 69.4871 41.4985 72.4919 41.4985C75.5295 41.4985 77.8157 43.8774 77.8157 47.0494C77.8157 50.2213 75.5295 52.6003 72.4919 52.6003Z" fill="black"/>
<path d="M151.472 38.7891V40.6063C150.002 39.3177 148.075 38.5248 145.952 38.5248C141.282 38.5248 137.525 42.3575 137.525 47.0494C137.525 51.7412 141.282 55.574 145.952 55.574C148.075 55.574 150.002 54.781 151.472 53.4924V55.3096H154.575V38.7891H151.472ZM146.017 52.6003C143.013 52.6003 140.694 50.2213 140.694 47.0494C140.694 43.8774 143.013 41.4985 146.017 41.4985C149.055 41.4985 151.341 43.8774 151.341 47.0494C151.341 50.2213 149.055 52.6003 146.017 52.6003Z" fill="black"/>
<path d="M112.381 70.098C112.064 70.098 111.793 69.9907 111.569 69.776C111.345 69.552 111.233 69.272 111.233 68.936C111.233 68.5907 111.34 68.3107 111.555 68.096C111.779 67.8813 112.054 67.774 112.381 67.774C112.708 67.774 112.978 67.8813 113.193 68.096C113.417 68.3107 113.529 68.5907 113.529 68.936C113.529 69.272 113.417 69.552 113.193 69.776C112.969 69.9907 112.698 70.098 112.381 70.098ZM118.823 62.44C119.551 62.44 120.2 62.5987 120.769 62.916C121.348 63.2333 121.8 63.6813 122.127 64.26C122.454 64.8387 122.617 65.506 122.617 66.262C122.617 67.018 122.454 67.69 122.127 68.278C121.8 68.8567 121.348 69.3047 120.769 69.622C120.2 69.9393 119.551 70.098 118.823 70.098C117.815 70.098 117.017 69.762 116.429 69.09V72.716H114.679V62.524H116.345V63.504C116.634 63.1493 116.989 62.8833 117.409 62.706C117.838 62.5287 118.31 62.44 118.823 62.44ZM118.627 68.6C119.271 68.6 119.798 68.3853 120.209 67.956C120.629 67.5267 120.839 66.962 120.839 66.262C120.839 65.562 120.629 64.9973 120.209 64.568C119.798 64.1387 119.271 63.924 118.627 63.924C118.207 63.924 117.829 64.022 117.493 64.218C117.157 64.4047 116.891 64.6753 116.695 65.03C116.499 65.3847 116.401 65.7953 116.401 66.262C116.401 66.7287 116.499 67.1393 116.695 67.494C116.891 67.8487 117.157 68.124 117.493 68.32C117.829 68.5067 118.207 68.6 118.627 68.6ZM126.477 62.44C127.578 62.44 128.418 62.706 128.997 63.238C129.585 63.7607 129.879 64.554 129.879 65.618V70H128.227V69.09C128.012 69.4167 127.704 69.6687 127.303 69.846C126.911 70.014 126.435 70.098 125.875 70.098C125.315 70.098 124.825 70.0047 124.405 69.818C123.985 69.622 123.658 69.356 123.425 69.02C123.201 68.6747 123.089 68.2873 123.089 67.858C123.089 67.186 123.336 66.6493 123.831 66.248C124.335 65.8373 125.124 65.632 126.197 65.632H128.129V65.52C128.129 64.9973 127.97 64.596 127.653 64.316C127.345 64.036 126.883 63.896 126.267 63.896C125.847 63.896 125.432 63.9613 125.021 64.092C124.62 64.2227 124.279 64.4047 123.999 64.638L123.313 63.364C123.705 63.0653 124.176 62.8367 124.727 62.678C125.278 62.5193 125.861 62.44 126.477 62.44ZM126.239 68.824C126.678 68.824 127.065 68.726 127.401 68.53C127.746 68.3247 127.989 68.0353 128.129 67.662V66.794H126.323C125.315 66.794 124.811 67.1253 124.811 67.788C124.811 68.1053 124.937 68.3573 125.189 68.544C125.441 68.7307 125.791 68.824 126.239 68.824ZM139.053 62.524V68.866C139.053 71.498 137.709 72.814 135.021 72.814C134.303 72.814 133.621 72.7207 132.977 72.534C132.333 72.3567 131.801 72.0953 131.381 71.75L132.165 70.434C132.492 70.7047 132.903 70.9193 133.397 71.078C133.901 71.246 134.41 71.33 134.923 71.33C135.745 71.33 136.347 71.1433 136.729 70.77C137.112 70.3967 137.303 69.8273 137.303 69.062V68.67C137.005 68.9967 136.641 69.244 136.211 69.412C135.782 69.58 135.311 69.664 134.797 69.664C134.088 69.664 133.444 69.5147 132.865 69.216C132.296 68.908 131.843 68.4787 131.507 67.928C131.181 67.3773 131.017 66.7473 131.017 66.038C131.017 65.3287 131.181 64.7033 131.507 64.162C131.843 63.6113 132.296 63.1867 132.865 62.888C133.444 62.5893 134.088 62.44 134.797 62.44C135.339 62.44 135.829 62.5287 136.267 62.706C136.715 62.8833 137.089 63.154 137.387 63.518V62.524H139.053ZM135.063 68.18C135.726 68.18 136.267 67.984 136.687 67.592C137.117 67.1907 137.331 66.6727 137.331 66.038C137.331 65.4127 137.117 64.904 136.687 64.512C136.267 64.12 135.726 63.924 135.063 63.924C134.391 63.924 133.841 64.12 133.411 64.512C132.991 64.904 132.781 65.4127 132.781 66.038C132.781 66.6727 132.991 67.1907 133.411 67.592C133.841 67.984 134.391 68.18 135.063 68.18ZM147.822 66.304C147.822 66.4253 147.813 66.598 147.794 66.822H141.928C142.031 67.3727 142.297 67.8113 142.726 68.138C143.165 68.4553 143.706 68.614 144.35 68.614C145.171 68.614 145.848 68.3433 146.38 67.802L147.318 68.88C146.982 69.2813 146.557 69.5847 146.044 69.79C145.531 69.9953 144.952 70.098 144.308 70.098C143.487 70.098 142.763 69.9347 142.138 69.608C141.513 69.2813 141.027 68.8287 140.682 68.25C140.346 67.662 140.178 66.9993 140.178 66.262C140.178 65.534 140.341 64.8807 140.668 64.302C141.004 63.714 141.466 63.2567 142.054 62.93C142.642 62.6033 143.305 62.44 144.042 62.44C144.77 62.44 145.419 62.6033 145.988 62.93C146.567 63.2473 147.015 63.7 147.332 64.288C147.659 64.8667 147.822 65.5387 147.822 66.304ZM144.042 63.84C143.482 63.84 143.006 64.008 142.614 64.344C142.231 64.6707 141.998 65.1093 141.914 65.66H146.156C146.081 65.1187 145.853 64.68 145.47 64.344C145.087 64.008 144.611 63.84 144.042 63.84ZM151.253 70.098C150.646 70.098 150.054 70.0187 149.475 69.86C148.896 69.7013 148.434 69.5007 148.089 69.258L148.761 67.928C149.097 68.152 149.498 68.334 149.965 68.474C150.441 68.6047 150.908 68.67 151.365 68.67C152.41 68.67 152.933 68.3947 152.933 67.844C152.933 67.5827 152.798 67.4007 152.527 67.298C152.266 67.1953 151.841 67.0973 151.253 67.004C150.637 66.9107 150.133 66.8033 149.741 66.682C149.358 66.5607 149.022 66.3507 148.733 66.052C148.453 65.744 148.313 65.3193 148.313 64.778C148.313 64.0687 148.607 63.504 149.195 63.084C149.792 62.6547 150.595 62.44 151.603 62.44C152.116 62.44 152.63 62.5007 153.143 62.622C153.656 62.734 154.076 62.888 154.403 63.084L153.731 64.414C153.096 64.0407 152.382 63.854 151.589 63.854C151.076 63.854 150.684 63.9333 150.413 64.092C150.152 64.2413 150.021 64.442 150.021 64.694C150.021 64.974 150.161 65.1747 150.441 65.296C150.73 65.408 151.174 65.5153 151.771 65.618C152.368 65.7113 152.858 65.8187 153.241 65.94C153.624 66.0613 153.95 66.2667 154.221 66.556C154.501 66.8453 154.641 67.256 154.641 67.788C154.641 68.488 154.338 69.048 153.731 69.468C153.124 69.888 152.298 70.098 151.253 70.098Z" fill="black"/>
</svg>
