<svg width="179" height="92" viewBox="0 0 179 92" fill="none" xmlns="http://www.w3.org/2000/svg">
<rect width="179" height="92" rx="14" fill="white"/>
<path d="M91.4148 38.3117C89.4831 38.3117 87.653 39.2292 86.3991 40.6904V38.5836H83.1796V55.5741H86.3991V45.9235C86.3991 43.273 88.263 41.3021 90.737 41.3021C91.5504 41.3021 92.4654 41.7098 93.2788 42.3215L94.2616 39.0253C93.4143 38.5496 92.4315 38.3117 91.4148 38.3117Z" fill="black"/>
<path d="M104.487 38.0491C102.284 38.0491 100.285 38.8642 98.7598 40.1888V30H95.5406V55.3021H98.7598V53.4342C100.285 54.7587 102.284 55.5738 104.487 55.5738C109.332 55.5738 113.229 51.6342 113.229 46.8115C113.229 41.9888 109.332 38.0491 104.487 38.0491ZM104.385 52.5172C101.267 52.5172 98.8615 50.0719 98.8615 46.8115C98.8615 43.5511 101.267 41.1058 104.385 41.1058C107.536 41.1058 109.908 43.5511 109.908 46.8115C109.908 50.0719 107.536 52.5172 104.385 52.5172Z" fill="black"/>
<path d="M116.854 33.8202C117.884 33.8202 118.772 32.9712 118.772 31.9101C118.772 30.8489 117.884 30 116.854 30C115.788 30 114.936 30.8489 114.936 31.9101C114.936 32.9712 115.788 33.8202 116.854 33.8202ZM115.149 55.5738H118.523V37.8879H115.149V55.5738Z" fill="black"/>
<path d="M128.799 38.3117C126.847 38.3117 124.997 39.2292 123.73 40.6904V38.5836H120.476V55.5741H123.73V45.9235C123.73 43.273 125.613 41.3021 128.114 41.3021C130.614 41.3021 132.498 43.273 132.498 45.8895V55.5741H135.82V45.7876C135.82 41.6079 132.875 38.3117 128.799 38.3117Z" fill="black"/>
<path d="M77.9464 38.7891V40.6063C76.4766 39.3177 74.5496 38.5247 72.4266 38.5247C67.7561 38.5247 64 42.3575 64 47.0494C64 51.7412 67.7561 55.574 72.4266 55.574C74.5496 55.574 76.4766 54.781 77.9464 53.4924V55.3096H81.0492V38.7891H77.9464ZM72.4919 52.6003C69.4871 52.6003 67.1682 50.2213 67.1682 47.0494C67.1682 43.8774 69.4871 41.4985 72.4919 41.4985C75.5295 41.4985 77.8157 43.8774 77.8157 47.0494C77.8157 50.2213 75.5295 52.6003 72.4919 52.6003Z" fill="black"/>
<path d="M151.472 38.7891V40.6063C150.002 39.3177 148.075 38.5247 145.952 38.5247C141.282 38.5247 137.525 42.3575 137.525 47.0494C137.525 51.7412 141.282 55.574 145.952 55.574C148.075 55.574 150.002 54.781 151.472 53.4924V55.3096H154.575V38.7891H151.472ZM146.017 52.6003C143.013 52.6003 140.694 50.2213 140.694 47.0494C140.694 43.8774 143.013 41.4985 146.017 41.4985C149.055 41.4985 151.341 43.8774 151.341 47.0494C151.341 50.2213 149.055 52.6003 146.017 52.6003Z" fill="black"/>
<path d="M140.752 70.098C140.434 70.098 140.164 69.9907 139.94 69.776C139.716 69.552 139.604 69.272 139.604 68.936C139.604 68.5907 139.711 68.3107 139.926 68.096C140.15 67.8813 140.425 67.774 140.752 67.774C141.078 67.774 141.349 67.8813 141.564 68.096C141.788 68.3107 141.9 68.5907 141.9 68.936C141.9 69.272 141.788 69.552 141.564 69.776C141.34 69.9907 141.069 70.098 140.752 70.098ZM143.05 62.524H144.8V70H143.05V62.524ZM143.932 61.292C143.614 61.292 143.348 61.194 143.134 60.998C142.919 60.7927 142.812 60.5407 142.812 60.242C142.812 59.9433 142.919 59.696 143.134 59.5C143.348 59.2947 143.614 59.192 143.932 59.192C144.249 59.192 144.515 59.29 144.73 59.486C144.944 59.6727 145.052 59.9107 145.052 60.2C145.052 60.508 144.944 60.7693 144.73 60.984C144.524 61.1893 144.258 61.292 143.932 61.292ZM153.859 59.612V70H152.179V69.034C151.889 69.3887 151.53 69.6547 151.101 69.832C150.681 70.0093 150.214 70.098 149.701 70.098C148.982 70.098 148.333 69.9393 147.755 69.622C147.185 69.3047 146.737 68.8567 146.411 68.278C146.084 67.69 145.921 67.018 145.921 66.262C145.921 65.506 146.084 64.8387 146.411 64.26C146.737 63.6813 147.185 63.2333 147.755 62.916C148.333 62.5987 148.982 62.44 149.701 62.44C150.195 62.44 150.648 62.524 151.059 62.692C151.469 62.86 151.819 63.112 152.109 63.448V59.612H153.859ZM149.911 68.6C150.331 68.6 150.709 68.5067 151.045 68.32C151.381 68.124 151.647 67.8487 151.843 67.494C152.039 67.1393 152.137 66.7287 152.137 66.262C152.137 65.7953 152.039 65.3847 151.843 65.03C151.647 64.6753 151.381 64.4047 151.045 64.218C150.709 64.022 150.331 63.924 149.911 63.924C149.491 63.924 149.113 64.022 148.777 64.218C148.441 64.4047 148.175 64.6753 147.979 65.03C147.783 65.3847 147.685 65.7953 147.685 66.262C147.685 66.7287 147.783 67.1393 147.979 67.494C148.175 67.8487 148.441 68.124 148.777 68.32C149.113 68.5067 149.491 68.6 149.911 68.6Z" fill="black"/>
</svg>
