<svg width="179" height="92" viewBox="0 0 179 92" fill="none" xmlns="http://www.w3.org/2000/svg">
<rect width="179" height="92" rx="14" fill="white"/>
<path d="M91.4148 38.3118C89.4831 38.3118 87.653 39.2292 86.3991 40.6904V38.5836H83.1796V55.5741H86.3991V45.9235C86.3991 43.273 88.263 41.3021 90.737 41.3021C91.5504 41.3021 92.4654 41.7098 93.2788 42.3215L94.2616 39.0254C93.4143 38.5496 92.4315 38.3118 91.4148 38.3118Z" fill="black"/>
<path d="M104.487 38.0491C102.284 38.0491 100.285 38.8642 98.7598 40.1888V30H95.5406V55.3021H98.7598V53.4342C100.285 54.7587 102.284 55.5738 104.487 55.5738C109.332 55.5738 113.229 51.6342 113.229 46.8115C113.229 41.9888 109.332 38.0491 104.487 38.0491ZM104.385 52.5172C101.267 52.5172 98.8615 50.0719 98.8615 46.8115C98.8615 43.5511 101.267 41.1058 104.385 41.1058C107.536 41.1058 109.908 43.5511 109.908 46.8115C109.908 50.0719 107.536 52.5172 104.385 52.5172Z" fill="black"/>
<path d="M116.854 33.8202C117.884 33.8202 118.772 32.9712 118.772 31.9101C118.772 30.8489 117.884 30 116.854 30C115.788 30 114.936 30.8489 114.936 31.9101C114.936 32.9712 115.788 33.8202 116.854 33.8202ZM115.149 55.5738H118.523V37.8879H115.149V55.5738Z" fill="black"/>
<path d="M128.799 38.3118C126.847 38.3118 124.997 39.2292 123.73 40.6904V38.5836H120.476V55.5741H123.73V45.9235C123.73 43.273 125.613 41.3021 128.114 41.3021C130.614 41.3021 132.498 43.273 132.498 45.8895V55.5741H135.82V45.7876C135.82 41.6079 132.875 38.3118 128.799 38.3118Z" fill="black"/>
<path d="M77.9464 38.7891V40.6063C76.4766 39.3177 74.5496 38.5247 72.4266 38.5247C67.7561 38.5247 64 42.3575 64 47.0494C64 51.7412 67.7561 55.574 72.4266 55.574C74.5496 55.574 76.4766 54.781 77.9464 53.4924V55.3096H81.0492V38.7891H77.9464ZM72.4919 52.6003C69.4871 52.6003 67.1682 50.2213 67.1682 47.0494C67.1682 43.8774 69.4871 41.4985 72.4919 41.4985C75.5295 41.4985 77.8157 43.8774 77.8157 47.0494C77.8157 50.2213 75.5295 52.6003 72.4919 52.6003Z" fill="black"/>
<path d="M151.472 38.7891V40.6063C150.002 39.3177 148.075 38.5247 145.952 38.5247C141.282 38.5247 137.525 42.3575 137.525 47.0494C137.525 51.7412 141.282 55.574 145.952 55.574C148.075 55.574 150.002 54.781 151.472 53.4924V55.3096H154.575V38.7891H151.472ZM146.017 52.6003C143.013 52.6003 140.694 50.2213 140.694 47.0494C140.694 43.8774 143.013 41.4985 146.017 41.4985C149.055 41.4985 151.341 43.8774 151.341 47.0494C151.341 50.2213 149.055 52.6003 146.017 52.6003Z" fill="black"/>
<path d="M106.734 70.098C106.417 70.098 106.146 69.9907 105.922 69.776C105.698 69.552 105.586 69.272 105.586 68.936C105.586 68.5907 105.693 68.3107 105.908 68.096C106.132 67.8813 106.407 67.774 106.734 67.774C107.061 67.774 107.331 67.8813 107.546 68.096C107.77 68.3107 107.882 68.5907 107.882 68.936C107.882 69.272 107.77 69.552 107.546 69.776C107.322 69.9907 107.051 70.098 106.734 70.098ZM113.176 62.44C113.904 62.44 114.553 62.5987 115.122 62.916C115.701 63.2333 116.153 63.6813 116.48 64.26C116.807 64.8387 116.97 65.506 116.97 66.262C116.97 67.018 116.807 67.69 116.48 68.278C116.153 68.8567 115.701 69.3047 115.122 69.622C114.553 69.9393 113.904 70.098 113.176 70.098C112.168 70.098 111.37 69.762 110.782 69.09V72.716H109.032V62.524H110.698V63.504C110.987 63.1493 111.342 62.8833 111.762 62.706C112.191 62.5287 112.663 62.44 113.176 62.44ZM112.98 68.6C113.624 68.6 114.151 68.3853 114.562 67.956C114.982 67.5267 115.192 66.962 115.192 66.262C115.192 65.562 114.982 64.9973 114.562 64.568C114.151 64.1387 113.624 63.924 112.98 63.924C112.56 63.924 112.182 64.022 111.846 64.218C111.51 64.4047 111.244 64.6753 111.048 65.03C110.852 65.3847 110.754 65.7953 110.754 66.262C110.754 66.7287 110.852 67.1393 111.048 67.494C111.244 67.8487 111.51 68.124 111.846 68.32C112.182 68.5067 112.56 68.6 112.98 68.6ZM121.43 70.098C120.674 70.098 119.992 69.9347 119.386 69.608C118.779 69.2813 118.303 68.8287 117.958 68.25C117.622 67.662 117.454 66.9993 117.454 66.262C117.454 65.5247 117.622 64.8667 117.958 64.288C118.303 63.7093 118.779 63.2567 119.386 62.93C119.992 62.6033 120.674 62.44 121.43 62.44C122.195 62.44 122.881 62.6033 123.488 62.93C124.094 63.2567 124.566 63.7093 124.902 64.288C125.247 64.8667 125.42 65.5247 125.42 66.262C125.42 66.9993 125.247 67.662 124.902 68.25C124.566 68.8287 124.094 69.2813 123.488 69.608C122.881 69.9347 122.195 70.098 121.43 70.098ZM121.43 68.6C122.074 68.6 122.606 68.3853 123.026 67.956C123.446 67.5267 123.656 66.962 123.656 66.262C123.656 65.562 123.446 64.9973 123.026 64.568C122.606 64.1387 122.074 63.924 121.43 63.924C120.786 63.924 120.254 64.1387 119.834 64.568C119.423 64.9973 119.218 65.562 119.218 66.262C119.218 66.962 119.423 67.5267 119.834 67.956C120.254 68.3853 120.786 68.6 121.43 68.6ZM129.963 70.098C129.188 70.098 128.493 69.9347 127.877 69.608C127.261 69.2813 126.78 68.8287 126.435 68.25C126.09 67.662 125.917 66.9993 125.917 66.262C125.917 65.5247 126.09 64.8667 126.435 64.288C126.78 63.7093 127.256 63.2567 127.863 62.93C128.479 62.6033 129.179 62.44 129.963 62.44C130.7 62.44 131.344 62.5893 131.895 62.888C132.455 63.1867 132.875 63.616 133.155 64.176L131.811 64.96C131.596 64.6147 131.326 64.358 130.999 64.19C130.682 64.0127 130.332 63.924 129.949 63.924C129.296 63.924 128.754 64.1387 128.325 64.568C127.896 64.988 127.681 65.5527 127.681 66.262C127.681 66.9713 127.891 67.5407 128.311 67.97C128.74 68.39 129.286 68.6 129.949 68.6C130.332 68.6 130.682 68.516 130.999 68.348C131.326 68.1707 131.596 67.9093 131.811 67.564L133.155 68.348C132.866 68.908 132.441 69.342 131.881 69.65C131.33 69.9487 130.691 70.098 129.963 70.098ZM137.091 66.794L135.789 68.026V70H134.039V59.612H135.789V65.884L139.415 62.524H141.515L138.393 65.66L141.809 70H139.681L137.091 66.794ZM149.093 66.304C149.093 66.4253 149.084 66.598 149.065 66.822H143.199C143.302 67.3727 143.568 67.8113 143.997 68.138C144.436 68.4553 144.977 68.614 145.621 68.614C146.443 68.614 147.119 68.3433 147.651 67.802L148.589 68.88C148.253 69.2813 147.829 69.5847 147.315 69.79C146.802 69.9953 146.223 70.098 145.579 70.098C144.758 70.098 144.035 69.9347 143.409 69.608C142.784 69.2813 142.299 68.8287 141.953 68.25C141.617 67.662 141.449 66.9993 141.449 66.262C141.449 65.534 141.613 64.8807 141.939 64.302C142.275 63.714 142.737 63.2567 143.325 62.93C143.913 62.6033 144.576 62.44 145.313 62.44C146.041 62.44 146.69 62.6033 147.259 62.93C147.838 63.2473 148.286 63.7 148.603 64.288C148.93 64.8667 149.093 65.5387 149.093 66.304ZM145.313 63.84C144.753 63.84 144.277 64.008 143.885 64.344C143.503 64.6707 143.269 65.1093 143.185 65.66H147.427C147.353 65.1187 147.124 64.68 146.741 64.344C146.359 64.008 145.883 63.84 145.313 63.84ZM154.708 69.594C154.503 69.762 154.251 69.888 153.952 69.972C153.663 70.056 153.355 70.098 153.028 70.098C152.207 70.098 151.572 69.8833 151.124 69.454C150.676 69.0247 150.452 68.3993 150.452 67.578V63.98H149.22V62.58H150.452V60.872H152.202V62.58H154.204V63.98H152.202V67.536C152.202 67.9 152.291 68.18 152.468 68.376C152.646 68.5627 152.902 68.656 153.238 68.656C153.63 68.656 153.957 68.5533 154.218 68.348L154.708 69.594Z" fill="black"/>
</svg>
