<svg width="179" height="92" viewBox="0 0 179 92" fill="none" xmlns="http://www.w3.org/2000/svg">
<rect width="179" height="92" rx="14" fill="white"/>
<path d="M91.4148 38.3117C89.4831 38.3117 87.653 39.2292 86.3991 40.6904V38.5836H83.1796V55.5741H86.3991V45.9235C86.3991 43.273 88.263 41.3021 90.737 41.3021C91.5504 41.3021 92.4654 41.7098 93.2788 42.3215L94.2616 39.0253C93.4143 38.5496 92.4315 38.3117 91.4148 38.3117Z" fill="black"/>
<path d="M104.487 38.0491C102.284 38.0491 100.285 38.8642 98.7598 40.1888V30H95.5406V55.3021H98.7598V53.4342C100.285 54.7587 102.284 55.5738 104.487 55.5738C109.332 55.5738 113.229 51.6342 113.229 46.8115C113.229 41.9888 109.332 38.0491 104.487 38.0491ZM104.385 52.5172C101.267 52.5172 98.8615 50.0719 98.8615 46.8115C98.8615 43.5511 101.267 41.1058 104.385 41.1058C107.536 41.1058 109.908 43.5511 109.908 46.8115C109.908 50.0719 107.536 52.5172 104.385 52.5172Z" fill="black"/>
<path d="M116.854 33.8202C117.884 33.8202 118.772 32.9712 118.772 31.9101C118.772 30.8489 117.884 30 116.854 30C115.788 30 114.936 30.8489 114.936 31.9101C114.936 32.9712 115.788 33.8202 116.854 33.8202ZM115.149 55.5738H118.523V37.8879H115.149V55.5738Z" fill="black"/>
<path d="M128.799 38.3117C126.847 38.3117 124.997 39.2292 123.73 40.6904V38.5836H120.476V55.5741H123.73V45.9235C123.73 43.273 125.613 41.3021 128.114 41.3021C130.614 41.3021 132.498 43.273 132.498 45.8895V55.5741H135.82V45.7876C135.82 41.6079 132.875 38.3117 128.799 38.3117Z" fill="black"/>
<path d="M77.9464 38.7891V40.6063C76.4766 39.3177 74.5496 38.5247 72.4266 38.5247C67.7561 38.5247 64 42.3575 64 47.0494C64 51.7412 67.7561 55.574 72.4266 55.574C74.5496 55.574 76.4766 54.781 77.9464 53.4924V55.3096H81.0492V38.7891H77.9464ZM72.4919 52.6003C69.4871 52.6003 67.1682 50.2213 67.1682 47.0494C67.1682 43.8774 69.4871 41.4985 72.4919 41.4985C75.5295 41.4985 77.8157 43.8774 77.8157 47.0494C77.8157 50.2213 75.5295 52.6003 72.4919 52.6003Z" fill="black"/>
<path d="M151.472 38.7891V40.6063C150.002 39.3177 148.075 38.5247 145.952 38.5247C141.282 38.5247 137.525 42.3575 137.525 47.0494C137.525 51.7412 141.282 55.574 145.952 55.574C148.075 55.574 150.002 54.781 151.472 53.4924V55.3096H154.575V38.7891H151.472ZM146.017 52.6003C143.013 52.6003 140.694 50.2213 140.694 47.0494C140.694 43.8774 143.013 41.4985 146.017 41.4985C149.055 41.4985 151.341 43.8774 151.341 47.0494C151.341 50.2213 149.055 52.6003 146.017 52.6003Z" fill="black"/>
<path d="M100.239 70.098C99.922 70.098 99.6513 69.9907 99.4273 69.776C99.2033 69.552 99.0913 69.272 99.0913 68.936C99.0913 68.5907 99.1987 68.3107 99.4133 68.096C99.6373 67.8813 99.9127 67.774 100.239 67.774C100.566 67.774 100.837 67.8813 101.051 68.096C101.275 68.3107 101.387 68.5907 101.387 68.936C101.387 69.272 101.275 69.552 101.051 69.776C100.827 69.9907 100.557 70.098 100.239 70.098ZM104.847 70.098C104.241 70.098 103.648 70.0187 103.069 69.86C102.491 69.7013 102.029 69.5007 101.683 69.258L102.355 67.928C102.691 68.152 103.093 68.334 103.559 68.474C104.035 68.6047 104.502 68.67 104.959 68.67C106.005 68.67 106.527 68.3947 106.527 67.844C106.527 67.5827 106.392 67.4007 106.121 67.298C105.86 67.1953 105.435 67.0973 104.847 67.004C104.231 66.9107 103.727 66.8033 103.335 66.682C102.953 66.5607 102.617 66.3507 102.327 66.052C102.047 65.744 101.907 65.3193 101.907 64.778C101.907 64.0687 102.201 63.504 102.789 63.084C103.387 62.6547 104.189 62.44 105.197 62.44C105.711 62.44 106.224 62.5007 106.737 62.622C107.251 62.734 107.671 62.888 107.997 63.084L107.325 64.414C106.691 64.0407 105.977 63.854 105.183 63.854C104.67 63.854 104.278 63.9333 104.007 64.092C103.746 64.2413 103.615 64.442 103.615 64.694C103.615 64.974 103.755 65.1747 104.035 65.296C104.325 65.408 104.768 65.5153 105.365 65.618C105.963 65.7113 106.453 65.8187 106.835 65.94C107.218 66.0613 107.545 66.2667 107.815 66.556C108.095 66.8453 108.235 67.256 108.235 67.788C108.235 68.488 107.932 69.048 107.325 69.468C106.719 69.888 105.893 70.098 104.847 70.098ZM116.42 62.524V70H114.754V69.048C114.474 69.384 114.124 69.6453 113.704 69.832C113.284 70.0093 112.832 70.098 112.346 70.098C111.348 70.098 110.559 69.8227 109.98 69.272C109.411 68.712 109.126 67.886 109.126 66.794V62.524H110.876V66.556C110.876 67.228 111.026 67.732 111.324 68.068C111.632 68.3947 112.066 68.558 112.626 68.558C113.252 68.558 113.746 68.3667 114.11 67.984C114.484 67.592 114.67 67.032 114.67 66.304V62.524H116.42ZM122.296 62.44C123.024 62.44 123.672 62.5987 124.242 62.916C124.82 63.2333 125.273 63.6813 125.6 64.26C125.926 64.8387 126.09 65.506 126.09 66.262C126.09 67.018 125.926 67.69 125.6 68.278C125.273 68.8567 124.82 69.3047 124.242 69.622C123.672 69.9393 123.024 70.098 122.296 70.098C121.288 70.098 120.49 69.762 119.902 69.09V72.716H118.152V62.524H119.818V63.504C120.107 63.1493 120.462 62.8833 120.882 62.706C121.311 62.5287 121.782 62.44 122.296 62.44ZM122.1 68.6C122.744 68.6 123.271 68.3853 123.682 67.956C124.102 67.5267 124.312 66.962 124.312 66.262C124.312 65.562 124.102 64.9973 123.682 64.568C123.271 64.1387 122.744 63.924 122.1 63.924C121.68 63.924 121.302 64.022 120.966 64.218C120.63 64.4047 120.364 64.6753 120.168 65.03C119.972 65.3847 119.874 65.7953 119.874 66.262C119.874 66.7287 119.972 67.1393 120.168 67.494C120.364 67.8487 120.63 68.124 120.966 68.32C121.302 68.5067 121.68 68.6 122.1 68.6ZM131.333 62.44C132.061 62.44 132.71 62.5987 133.279 62.916C133.858 63.2333 134.311 63.6813 134.637 64.26C134.964 64.8387 135.127 65.506 135.127 66.262C135.127 67.018 134.964 67.69 134.637 68.278C134.311 68.8567 133.858 69.3047 133.279 69.622C132.71 69.9393 132.061 70.098 131.333 70.098C130.325 70.098 129.527 69.762 128.939 69.09V72.716H127.189V62.524H128.855V63.504C129.145 63.1493 129.499 62.8833 129.919 62.706C130.349 62.5287 130.82 62.44 131.333 62.44ZM131.137 68.6C131.781 68.6 132.309 68.3853 132.719 67.956C133.139 67.5267 133.349 66.962 133.349 66.262C133.349 65.562 133.139 64.9973 132.719 64.568C132.309 64.1387 131.781 63.924 131.137 63.924C130.717 63.924 130.339 64.022 130.003 64.218C129.667 64.4047 129.401 64.6753 129.205 65.03C129.009 65.3847 128.911 65.7953 128.911 66.262C128.911 66.7287 129.009 67.1393 129.205 67.494C129.401 67.8487 129.667 68.124 130.003 68.32C130.339 68.5067 130.717 68.6 131.137 68.6ZM139.587 70.098C138.831 70.098 138.15 69.9347 137.543 69.608C136.936 69.2813 136.46 68.8287 136.115 68.25C135.779 67.662 135.611 66.9993 135.611 66.262C135.611 65.5247 135.779 64.8667 136.115 64.288C136.46 63.7093 136.936 63.2567 137.543 62.93C138.15 62.6033 138.831 62.44 139.587 62.44C140.352 62.44 141.038 62.6033 141.645 62.93C142.252 63.2567 142.723 63.7093 143.059 64.288C143.404 64.8667 143.577 65.5247 143.577 66.262C143.577 66.9993 143.404 67.662 143.059 68.25C142.723 68.8287 142.252 69.2813 141.645 69.608C141.038 69.9347 140.352 70.098 139.587 70.098ZM139.587 68.6C140.231 68.6 140.763 68.3853 141.183 67.956C141.603 67.5267 141.813 66.962 141.813 66.262C141.813 65.562 141.603 64.9973 141.183 64.568C140.763 64.1387 140.231 63.924 139.587 63.924C138.943 63.924 138.411 64.1387 137.991 64.568C137.58 64.9973 137.375 65.562 137.375 66.262C137.375 66.962 137.58 67.5267 137.991 67.956C138.411 68.3853 138.943 68.6 139.587 68.6ZM146.356 63.616C146.86 62.832 147.747 62.44 149.016 62.44V64.106C148.867 64.078 148.732 64.064 148.61 64.064C147.929 64.064 147.397 64.2647 147.014 64.666C146.632 65.058 146.44 65.6273 146.44 66.374V70H144.69V62.524H146.356V63.616ZM154.708 69.594C154.503 69.762 154.251 69.888 153.952 69.972C153.663 70.056 153.355 70.098 153.028 70.098C152.207 70.098 151.572 69.8833 151.124 69.454C150.676 69.0247 150.452 68.3993 150.452 67.578V63.98H149.22V62.58H150.452V60.872H152.202V62.58H154.204V63.98H152.202V67.536C152.202 67.9 152.291 68.18 152.468 68.376C152.646 68.5627 152.902 68.656 153.238 68.656C153.63 68.656 153.957 68.5533 154.218 68.348L154.708 69.594Z" fill="black"/>
</svg>
