<svg width="179" height="92" viewBox="0 0 179 92" fill="none" xmlns="http://www.w3.org/2000/svg">
<rect width="179" height="92" rx="14" fill="white"/>
<path d="M91.4148 38.3118C89.4831 38.3118 87.653 39.2292 86.3991 40.6904V38.5836H83.1795V55.5741H86.3991V45.9235C86.3991 43.273 88.263 41.3021 90.737 41.3021C91.5503 41.3021 92.4654 41.7098 93.2787 42.3215L94.2615 39.0254C93.4143 38.5496 92.4315 38.3118 91.4148 38.3118Z" fill="black"/>
<path d="M104.487 38.0491C102.284 38.0491 100.285 38.8642 98.7598 40.1888V30H95.5406V55.3021H98.7598V53.4342C100.285 54.7587 102.284 55.5738 104.487 55.5738C109.332 55.5738 113.229 51.6342 113.229 46.8115C113.229 41.9888 109.332 38.0491 104.487 38.0491ZM104.385 52.5172C101.267 52.5172 98.8615 50.0719 98.8615 46.8115C98.8615 43.5511 101.267 41.1058 104.385 41.1058C107.536 41.1058 109.908 43.5511 109.908 46.8115C109.908 50.0719 107.536 52.5172 104.385 52.5172Z" fill="black"/>
<path d="M116.854 33.8202C117.884 33.8202 118.772 32.9712 118.772 31.9101C118.772 30.8489 117.884 30 116.854 30C115.788 30 114.936 30.8489 114.936 31.9101C114.936 32.9712 115.788 33.8202 116.854 33.8202ZM115.149 55.5738H118.523V37.8879H115.149V55.5738Z" fill="black"/>
<path d="M128.799 38.3118C126.847 38.3118 124.997 39.2292 123.73 40.6904V38.5836H120.476V55.5741H123.73V45.9235C123.73 43.273 125.614 41.3021 128.114 41.3021C130.614 41.3021 132.498 43.273 132.498 45.8895V55.5741H135.82V45.7876C135.82 41.6079 132.875 38.3118 128.799 38.3118Z" fill="black"/>
<path d="M77.9464 38.7891V40.6063C76.4766 39.3177 74.5496 38.5247 72.4266 38.5247C67.7561 38.5247 64 42.3575 64 47.0494C64 51.7412 67.7561 55.574 72.4266 55.574C74.5496 55.574 76.4766 54.781 77.9464 53.4924V55.3096H81.0492V38.7891H77.9464ZM72.4919 52.6003C69.4871 52.6003 67.1682 50.2213 67.1682 47.0494C67.1682 43.8774 69.4871 41.4985 72.4919 41.4985C75.5295 41.4985 77.8157 43.8774 77.8157 47.0494C77.8157 50.2213 75.5295 52.6003 72.4919 52.6003Z" fill="black"/>
<path d="M151.472 38.7891V40.6063C150.002 39.3177 148.075 38.5247 145.952 38.5247C141.281 38.5247 137.525 42.3575 137.525 47.0494C137.525 51.7412 141.281 55.574 145.952 55.574C148.075 55.574 150.002 54.781 151.472 53.4924V55.3096H154.575V38.7891H151.472ZM146.017 52.6003C143.013 52.6003 140.694 50.2213 140.694 47.0494C140.694 43.8774 143.013 41.4985 146.017 41.4985C149.055 41.4985 151.341 43.8774 151.341 47.0494C151.341 50.2213 149.055 52.6003 146.017 52.6003Z" fill="black"/>
<path d="M74.1791 70.098C73.8618 70.098 73.5911 69.9907 73.3671 69.776C73.1431 69.552 73.0311 69.272 73.0311 68.936C73.0311 68.5907 73.1384 68.3107 73.3531 68.096C73.5771 67.8813 73.8524 67.774 74.1791 67.774C74.5058 67.774 74.7764 67.8813 74.9911 68.096C75.2151 68.3107 75.3271 68.5907 75.3271 68.936C75.3271 69.272 75.2151 69.552 74.9911 69.776C74.7671 69.9907 74.4964 70.098 74.1791 70.098ZM79.4698 62.44C80.5711 62.44 81.4111 62.706 81.9898 63.238C82.5778 63.7607 82.8718 64.554 82.8718 65.618V70H81.2198V69.09C81.0051 69.4167 80.6971 69.6687 80.2958 69.846C79.9038 70.014 79.4278 70.098 78.8678 70.098C78.3078 70.098 77.8178 70.0047 77.3978 69.818C76.9778 69.622 76.6511 69.356 76.4178 69.02C76.1938 68.6747 76.0818 68.2873 76.0818 67.858C76.0818 67.186 76.3291 66.6493 76.8238 66.248C77.3278 65.8373 78.1164 65.632 79.1898 65.632H81.1218V65.52C81.1218 64.9973 80.9631 64.596 80.6458 64.316C80.3378 64.036 79.8758 63.896 79.2598 63.896C78.8398 63.896 78.4244 63.9613 78.0138 64.092C77.6124 64.2227 77.2718 64.4047 76.9918 64.638L76.3058 63.364C76.6978 63.0653 77.1691 62.8367 77.7198 62.678C78.2704 62.5193 78.8538 62.44 79.4698 62.44ZM79.2318 68.824C79.6704 68.824 80.0578 68.726 80.3938 68.53C80.7391 68.3247 80.9818 68.0353 81.1218 67.662V66.794H79.3158C78.3078 66.794 77.8038 67.1253 77.8038 67.788C77.8038 68.1053 77.9298 68.3573 78.1818 68.544C78.4338 68.7307 78.7838 68.824 79.2318 68.824ZM91.7957 62.524V70H90.1297V69.048C89.8497 69.384 89.4997 69.6453 89.0797 69.832C88.6597 70.0093 88.207 70.098 87.7217 70.098C86.723 70.098 85.9344 69.8227 85.3557 69.272C84.7864 68.712 84.5017 67.886 84.5017 66.794V62.524H86.2517V66.556C86.2517 67.228 86.401 67.732 86.6997 68.068C87.0077 68.3947 87.4417 68.558 88.0017 68.558C88.627 68.558 89.1217 68.3667 89.4857 67.984C89.859 67.592 90.0457 67.032 90.0457 66.304V62.524H91.7957ZM98.021 69.594C97.8156 69.762 97.5636 69.888 97.265 69.972C96.9756 70.056 96.6676 70.098 96.341 70.098C95.5196 70.098 94.885 69.8833 94.437 69.454C93.989 69.0247 93.765 68.3993 93.765 67.578V63.98H92.533V62.58H93.765V60.872H95.515V62.58H97.517V63.98H95.515V67.536C95.515 67.9 95.6036 68.18 95.781 68.376C95.9583 68.5627 96.215 68.656 96.551 68.656C96.943 68.656 97.2696 68.5533 97.531 68.348L98.021 69.594ZM102.014 70.098C101.258 70.098 100.577 69.9347 99.9705 69.608C99.3638 69.2813 98.8878 68.8287 98.5425 68.25C98.2065 67.662 98.0385 66.9993 98.0385 66.262C98.0385 65.5247 98.2065 64.8667 98.5425 64.288C98.8878 63.7093 99.3638 63.2567 99.9705 62.93C100.577 62.6033 101.258 62.44 102.014 62.44C102.78 62.44 103.466 62.6033 104.072 62.93C104.679 63.2567 105.15 63.7093 105.486 64.288C105.832 64.8667 106.004 65.5247 106.004 66.262C106.004 66.9993 105.832 67.662 105.486 68.25C105.15 68.8287 104.679 69.2813 104.072 69.608C103.466 69.9347 102.78 70.098 102.014 70.098ZM102.014 68.6C102.658 68.6 103.19 68.3853 103.61 67.956C104.03 67.5267 104.24 66.962 104.24 66.262C104.24 65.562 104.03 64.9973 103.61 64.568C103.19 64.1387 102.658 63.924 102.014 63.924C101.37 63.924 100.838 64.1387 100.418 64.568C100.008 64.9973 99.8025 65.562 99.8025 66.262C99.8025 66.962 100.008 67.5267 100.418 67.956C100.838 68.3853 101.37 68.6 102.014 68.6ZM116.554 62.44C117.497 62.44 118.243 62.7153 118.794 63.266C119.345 63.8073 119.62 64.624 119.62 65.716V70H117.87V65.94C117.87 65.2867 117.725 64.7967 117.436 64.47C117.147 64.134 116.731 63.966 116.19 63.966C115.602 63.966 115.131 64.162 114.776 64.554C114.421 64.9367 114.244 65.4873 114.244 66.206V70H112.494V65.94C112.494 65.2867 112.349 64.7967 112.06 64.47C111.771 64.134 111.355 63.966 110.814 63.966C110.217 63.966 109.741 64.1573 109.386 64.54C109.041 64.9227 108.868 65.478 108.868 66.206V70H107.118V62.524H108.784V63.476C109.064 63.14 109.414 62.8833 109.834 62.706C110.254 62.5287 110.721 62.44 111.234 62.44C111.794 62.44 112.289 62.5473 112.718 62.762C113.157 62.9673 113.502 63.2753 113.754 63.686C114.062 63.294 114.459 62.9907 114.944 62.776C115.429 62.552 115.966 62.44 116.554 62.44ZM124.152 62.44C125.254 62.44 126.094 62.706 126.672 63.238C127.26 63.7607 127.554 64.554 127.554 65.618V70H125.902V69.09C125.688 69.4167 125.38 69.6687 124.978 69.846C124.586 70.014 124.11 70.098 123.55 70.098C122.99 70.098 122.5 70.0047 122.08 69.818C121.66 69.622 121.334 69.356 121.1 69.02C120.876 68.6747 120.764 68.2873 120.764 67.858C120.764 67.186 121.012 66.6493 121.506 66.248C122.01 65.8373 122.799 65.632 123.872 65.632H125.804V65.52C125.804 64.9973 125.646 64.596 125.328 64.316C125.02 64.036 124.558 63.896 123.942 63.896C123.522 63.896 123.107 63.9613 122.696 64.092C122.295 64.2227 121.954 64.4047 121.674 64.638L120.988 63.364C121.38 63.0653 121.852 62.8367 122.402 62.678C122.953 62.5193 123.536 62.44 124.152 62.44ZM123.914 68.824C124.353 68.824 124.74 68.726 125.076 68.53C125.422 68.3247 125.664 68.0353 125.804 67.662V66.794H123.998C122.99 66.794 122.486 67.1253 122.486 67.788C122.486 68.1053 122.612 68.3573 122.864 68.544C123.116 68.7307 123.466 68.824 123.914 68.824ZM133.734 69.594C133.529 69.762 133.277 69.888 132.978 69.972C132.689 70.056 132.381 70.098 132.054 70.098C131.233 70.098 130.598 69.8833 130.15 69.454C129.702 69.0247 129.478 68.3993 129.478 67.578V63.98H128.246V62.58H129.478V60.872H131.228V62.58H133.23V63.98H131.228V67.536C131.228 67.9 131.317 68.18 131.494 68.376C131.671 68.5627 131.928 68.656 132.264 68.656C132.656 68.656 132.983 68.5533 133.244 68.348L133.734 69.594ZM134.614 62.524H136.364V70H134.614V62.524ZM135.496 61.292C135.178 61.292 134.912 61.194 134.698 60.998C134.483 60.7927 134.376 60.5407 134.376 60.242C134.376 59.9433 134.483 59.696 134.698 59.5C134.912 59.2947 135.178 59.192 135.496 59.192C135.813 59.192 136.079 59.29 136.294 59.486C136.508 59.6727 136.616 59.9107 136.616 60.2C136.616 60.508 136.508 60.7693 136.294 60.984C136.088 61.1893 135.822 61.292 135.496 61.292ZM141.461 70.098C140.705 70.098 140.023 69.9347 139.417 69.608C138.81 69.2813 138.334 68.8287 137.989 68.25C137.653 67.662 137.485 66.9993 137.485 66.262C137.485 65.5247 137.653 64.8667 137.989 64.288C138.334 63.7093 138.81 63.2567 139.417 62.93C140.023 62.6033 140.705 62.44 141.461 62.44C142.226 62.44 142.912 62.6033 143.519 62.93C144.125 63.2567 144.597 63.7093 144.933 64.288C145.278 64.8667 145.451 65.5247 145.451 66.262C145.451 66.9993 145.278 67.662 144.933 68.25C144.597 68.8287 144.125 69.2813 143.519 69.608C142.912 69.9347 142.226 70.098 141.461 70.098ZM141.461 68.6C142.105 68.6 142.637 68.3853 143.057 67.956C143.477 67.5267 143.687 66.962 143.687 66.262C143.687 65.562 143.477 64.9973 143.057 64.568C142.637 64.1387 142.105 63.924 141.461 63.924C140.817 63.924 140.285 64.1387 139.865 64.568C139.454 64.9973 139.249 65.562 139.249 66.262C139.249 66.962 139.454 67.5267 139.865 67.956C140.285 68.3853 140.817 68.6 141.461 68.6ZM150.806 62.44C151.749 62.44 152.505 62.7153 153.074 63.266C153.643 63.8167 153.928 64.6333 153.928 65.716V70H152.178V65.94C152.178 65.2867 152.024 64.7967 151.716 64.47C151.408 64.134 150.969 63.966 150.4 63.966C149.756 63.966 149.247 64.162 148.874 64.554C148.501 64.9367 148.314 65.492 148.314 66.22V70H146.564V62.524H148.23V63.49C148.519 63.1447 148.883 62.8833 149.322 62.706C149.761 62.5287 150.255 62.44 150.806 62.44Z" fill="black"/>
</svg>
