<svg width="179" height="92" viewBox="0 0 179 92" fill="none" xmlns="http://www.w3.org/2000/svg">
<rect width="179" height="92" rx="14" fill="white"/>
<path d="M91.4148 38.3117C89.4831 38.3117 87.653 39.2292 86.3991 40.6904V38.5836H83.1795V55.5741H86.3991V45.9235C86.3991 43.273 88.263 41.3021 90.737 41.3021C91.5503 41.3021 92.4654 41.7098 93.2787 42.3215L94.2615 39.0253C93.4143 38.5496 92.4315 38.3117 91.4148 38.3117Z" fill="black"/>
<path d="M104.487 38.0491C102.284 38.0491 100.285 38.8642 98.7598 40.1888V30H95.5406V55.3021H98.7598V53.4342C100.285 54.7587 102.284 55.5738 104.487 55.5738C109.332 55.5738 113.229 51.6342 113.229 46.8115C113.229 41.9888 109.332 38.0491 104.487 38.0491ZM104.385 52.5172C101.267 52.5172 98.8615 50.0719 98.8615 46.8115C98.8615 43.5511 101.267 41.1058 104.385 41.1058C107.536 41.1058 109.908 43.5511 109.908 46.8115C109.908 50.0719 107.536 52.5172 104.385 52.5172Z" fill="black"/>
<path d="M116.854 33.8202C117.884 33.8202 118.772 32.9712 118.772 31.9101C118.772 30.8489 117.884 30 116.854 30C115.788 30 114.936 30.8489 114.936 31.9101C114.936 32.9712 115.788 33.8202 116.854 33.8202ZM115.149 55.5738H118.523V37.8879H115.149V55.5738Z" fill="black"/>
<path d="M128.799 38.3117C126.847 38.3117 124.997 39.2292 123.73 40.6904V38.5836H120.476V55.5741H123.73V45.9235C123.73 43.273 125.614 41.3021 128.114 41.3021C130.614 41.3021 132.498 43.273 132.498 45.8895V55.5741H135.82V45.7876C135.82 41.6079 132.875 38.3117 128.799 38.3117Z" fill="black"/>
<path d="M77.9464 38.7891V40.6063C76.4766 39.3177 74.5496 38.5247 72.4266 38.5247C67.7561 38.5247 64 42.3575 64 47.0494C64 51.7412 67.7561 55.574 72.4266 55.574C74.5496 55.574 76.4766 54.781 77.9464 53.4924V55.3096H81.0492V38.7891H77.9464ZM72.4919 52.6003C69.4871 52.6003 67.1682 50.2213 67.1682 47.0494C67.1682 43.8774 69.4871 41.4985 72.4919 41.4985C75.5295 41.4985 77.8157 43.8774 77.8157 47.0494C77.8157 50.2213 75.5295 52.6003 72.4919 52.6003Z" fill="black"/>
<path d="M151.472 38.7891V40.6063C150.002 39.3177 148.075 38.5247 145.952 38.5247C141.281 38.5247 137.525 42.3575 137.525 47.0494C137.525 51.7412 141.281 55.574 145.952 55.574C148.075 55.574 150.002 54.781 151.472 53.4924V55.3096H154.575V38.7891H151.472ZM146.017 52.6003C143.013 52.6003 140.694 50.2213 140.694 47.0494C140.694 43.8774 143.013 41.4985 146.017 41.4985C149.055 41.4985 151.341 43.8774 151.341 47.0494C151.341 50.2213 149.055 52.6003 146.017 52.6003Z" fill="black"/>
<path d="M111.862 70.098C111.544 70.098 111.274 69.9907 111.05 69.776C110.826 69.552 110.714 69.272 110.714 68.936C110.714 68.5907 110.821 68.3107 111.036 68.096C111.26 67.8813 111.535 67.774 111.862 67.774C112.188 67.774 112.459 67.8813 112.674 68.096C112.898 68.3107 113.01 68.5907 113.01 68.936C113.01 69.272 112.898 69.552 112.674 69.776C112.45 69.9907 112.179 70.098 111.862 70.098ZM117.197 60.928C116.46 60.928 116.091 61.3293 116.091 62.132V62.58H118.149V63.98H116.147V70H114.397V63.98H113.165V62.58H114.397V62.104C114.397 61.3013 114.631 60.6713 115.097 60.214C115.564 59.7473 116.222 59.514 117.071 59.514C117.743 59.514 118.271 59.6493 118.653 59.92L118.163 61.236C117.865 61.0307 117.543 60.928 117.197 60.928ZM122.018 70.098C121.262 70.098 120.581 69.9347 119.974 69.608C119.367 69.2813 118.891 68.8287 118.546 68.25C118.21 67.662 118.042 66.9993 118.042 66.262C118.042 65.5247 118.21 64.8667 118.546 64.288C118.891 63.7093 119.367 63.2567 119.974 62.93C120.581 62.6033 121.262 62.44 122.018 62.44C122.783 62.44 123.469 62.6033 124.076 62.93C124.683 63.2567 125.154 63.7093 125.49 64.288C125.835 64.8667 126.008 65.5247 126.008 66.262C126.008 66.9993 125.835 67.662 125.49 68.25C125.154 68.8287 124.683 69.2813 124.076 69.608C123.469 69.9347 122.783 70.098 122.018 70.098ZM122.018 68.6C122.662 68.6 123.194 68.3853 123.614 67.956C124.034 67.5267 124.244 66.962 124.244 66.262C124.244 65.562 124.034 64.9973 123.614 64.568C123.194 64.1387 122.662 63.924 122.018 63.924C121.374 63.924 120.842 64.1387 120.422 64.568C120.011 64.9973 119.806 65.562 119.806 66.262C119.806 66.962 120.011 67.5267 120.422 67.956C120.842 68.3853 121.374 68.6 122.018 68.6ZM128.788 63.616C129.292 62.832 130.178 62.44 131.448 62.44V64.106C131.298 64.078 131.163 64.064 131.042 64.064C130.36 64.064 129.828 64.2647 129.446 64.666C129.063 65.058 128.872 65.6273 128.872 66.374V70H127.122V62.524H128.788V63.616ZM139.678 62.524V70H138.012V69.048C137.732 69.384 137.382 69.6453 136.962 69.832C136.542 70.0093 136.09 70.098 135.604 70.098C134.606 70.098 133.817 69.8227 133.238 69.272C132.669 68.712 132.384 67.886 132.384 66.794V62.524H134.134V66.556C134.134 67.228 134.284 67.732 134.582 68.068C134.89 68.3947 135.324 68.558 135.884 68.558C136.51 68.558 137.004 68.3667 137.368 67.984C137.742 67.592 137.928 67.032 137.928 66.304V62.524H139.678ZM150.846 62.44C151.788 62.44 152.535 62.7153 153.086 63.266C153.636 63.8073 153.912 64.624 153.912 65.716V70H152.162V65.94C152.162 65.2867 152.017 64.7967 151.728 64.47C151.438 64.134 151.023 63.966 150.482 63.966C149.894 63.966 149.422 64.162 149.068 64.554C148.713 64.9367 148.536 65.4873 148.536 66.206V70H146.786V65.94C146.786 65.2867 146.641 64.7967 146.352 64.47C146.062 64.134 145.647 63.966 145.106 63.966C144.508 63.966 144.032 64.1573 143.678 64.54C143.332 64.9227 143.16 65.478 143.16 66.206V70H141.41V62.524H143.076V63.476C143.356 63.14 143.706 62.8833 144.126 62.706C144.546 62.5287 145.012 62.44 145.526 62.44C146.086 62.44 146.58 62.5473 147.01 62.762C147.448 62.9673 147.794 63.2753 148.046 63.686C148.354 63.294 148.75 62.9907 149.236 62.776C149.721 62.552 150.258 62.44 150.846 62.44Z" fill="black"/>
</svg>
